<mxfile host="app.diagrams.net" modified="2024-04-28T08:55:36.663Z" agent="Mozilla/5.0 (Windows NT 10.0; Win64; x64) AppleWebKit/537.36 (KHTML, like Gecko) Chrome/124.0.0.0 Safari/537.36" etag="wCKjATECslUATNiUF7dp" version="24.3.0" type="device">
  <diagram id="e9vmOJx6UXK1eXBnLMV4" name="第 1 页">
    <mxGraphModel dx="2421" dy="618" grid="1" gridSize="10" guides="1" tooltips="1" connect="1" arrows="1" fold="1" page="0" pageScale="1" pageWidth="827" pageHeight="1169" background="none" math="0" shadow="0">
      <root>
        <mxCell id="0" />
        <mxCell id="1" parent="0" />
        <mxCell id="node1" value="&lt;p style=&quot;margin:0px;margin-top:4px;text-align:center;&quot;&gt;&lt;b&gt;Discus scourse information Controller&lt;/b&gt;&lt;/p&gt;&lt;hr size=&quot;1&quot;&gt;&lt;p style=&quot;margin:0 0 0 4px;line-height:1.6;&quot;&gt;- Discus scourse informationService: Discus scourse informationService&lt;/p&gt;&lt;hr size=&quot;1&quot;&gt;&lt;p style=&quot;margin:0 0 0 4px;line-height:1.6;&quot;&gt;+ list(Discus scourse informationEntity): R&lt;br&gt;+ list(Map&amp;lt;String, Object&amp;gt;, Discus scourse informationEntity, HttpServletRequest): R&lt;br&gt;+ remindCount(String, HttpServletRequest, String, Map&amp;lt;String, Object&amp;gt;): R&lt;br&gt;+ delete(Long[]): R&lt;br&gt;+ query(Discus scourse informationEntity): R&lt;br&gt;+ detail(Long): R&lt;br&gt;+ update(Discus scourse informationEntity, HttpServletRequest): R&lt;br&gt;+ page(Map&amp;lt;String, Object&amp;gt;, Discus scourse informationEntity, HttpServletRequest): R&lt;br&gt;+ info(Long): R&lt;br&gt;+ add(Discus scourse informationEntity, HttpServletRequest): R&lt;br&gt;+ save(Discus scourse informationEntity, HttpServletRequest): R&lt;/p&gt;" style="verticalAlign=top;align=left;overflow=fill;fontSize=14;fontFamily=Helvetica;html=1;rounded=0;shadow=0;comic=0;labelBackgroundColor=none;strokeWidth=1;" parent="1" vertex="1">
          <mxGeometry x="-49" y="60" width="441" height="328" as="geometry" />
        </mxCell>
        <mxCell id="ZGr0lM3EEifFJW2oDLYv-1" value="&lt;p style=&quot;margin:0px;margin-top:4px;text-align:center;&quot;&gt;&lt;b&gt;FileController&lt;/b&gt;&lt;/p&gt;&lt;hr size=&quot;1&quot;/&gt;&lt;p style=&quot;margin:0 0 0 4px;line-height:1.6;&quot;&gt;- configService: ConfigService&lt;/p&gt;&lt;hr size=&quot;1&quot;/&gt;&lt;p style=&quot;margin:0 0 0 4px;line-height:1.6;&quot;&gt;+ download(String, HttpServletRequest, HttpServletResponse): void&lt;br/&gt;+ upload(MultipartFile, String, HttpServletRequest): R&lt;/p&gt;" style="verticalAlign=top;align=left;overflow=fill;fontSize=14;fontFamily=Helvetica;html=1;rounded=0;shadow=0;comic=0;labelBackgroundColor=none;strokeWidth=1;" vertex="1" parent="1">
          <mxGeometry x="-71" y="482" width="449" height="121" as="geometry" />
        </mxCell>
        <mxCell id="ZGr0lM3EEifFJW2oDLYv-4" value="&lt;p style=&quot;margin:0px;margin-top:4px;text-align:center;&quot;&gt;&lt;b&gt;StudentController&lt;/b&gt;&lt;/p&gt;&lt;hr size=&quot;1&quot;/&gt;&lt;p style=&quot;margin:0 0 0 4px;line-height:1.6;&quot;&gt;- StudentService: StudentService&lt;br/&gt;- tokenService: TokenService&lt;/p&gt;&lt;hr size=&quot;1&quot;/&gt;&lt;p style=&quot;margin:0 0 0 4px;line-height:1.6;&quot;&gt;+ info(Long): R&lt;br/&gt;+ resetPass(String, HttpServletRequest): R&lt;br/&gt;+ add(XueshengEntity, HttpServletRequest): R&lt;br/&gt;+ detail(Long): R&lt;br/&gt;+ getCurrUser(HttpServletRequest): R&lt;br/&gt;+ query(StudentEntity): R&lt;br/&gt;+ register(studentEntity): R&lt;br/&gt;+ save(StudentEntity, HttpServletRequest): R&lt;br/&gt;+ logout(HttpServletRequest): R&lt;br/&gt;+ delete(Long[]): R&lt;br/&gt;+ login(String, String, String, HttpServletRequest): R&lt;br/&gt;+ page(Map&amp;lt;String, Object&amp;gt;, XueshengEntity, HttpServletRequest): R&lt;br/&gt;+ list(Map&amp;lt;String, Object&amp;gt;, StudentEntity, HttpServletRequest): R&lt;br/&gt;+ remindCount(String, HttpServletRequest, String, Map&amp;lt;String, Object&amp;gt;): R&lt;br/&gt;+ list(StudentEntity): R&lt;br/&gt;+ update(StudentEntity, HttpServletRequest): R&lt;/p&gt;" style="verticalAlign=top;align=left;overflow=fill;fontSize=14;fontFamily=Helvetica;html=1;rounded=0;shadow=0;comic=0;labelBackgroundColor=none;strokeWidth=1;" vertex="1" parent="1">
          <mxGeometry x="488" y="531" width="452" height="472" as="geometry" />
        </mxCell>
        <mxCell id="ZGr0lM3EEifFJW2oDLYv-5" value="&lt;p style=&quot;margin:0px;margin-top:4px;text-align:center;&quot;&gt;&lt;b&gt;Course selection informationController&lt;/b&gt;&lt;/p&gt;&lt;hr size=&quot;1&quot;/&gt;&lt;p style=&quot;margin:0 0 0 4px;line-height:1.6;&quot;&gt;- Course selection informationService: Course selection informationService&lt;/p&gt;&lt;hr size=&quot;1&quot;/&gt;&lt;p style=&quot;margin:0 0 0 4px;line-height:1.6;&quot;&gt;+ list(Map&amp;lt;String, Object&amp;gt;, Course selection informationEntity, HttpServletRequest): R&lt;br/&gt;+ detail(Long): R&lt;br/&gt;+ delete(Long[]): R&lt;br/&gt;+ add(Course selection informationEntity, HttpServletRequest): R&lt;br/&gt;+ remindCount(String, HttpServletRequest, String, Map&amp;lt;String, Object&amp;gt;): R&lt;br/&gt;+ save(Course selection informationEntity, HttpServletRequest): R&lt;br/&gt;+ query(Course selection informationEntity): R&lt;br/&gt;+ info(Long): R&lt;br/&gt;+ list(Course selection informationEntity): R&lt;br/&gt;+ update(Course selection informationEntity, HttpServletRequest): R&lt;br/&gt;+ page(Map&amp;lt;String, Object&amp;gt;, Course selection informationEntity, HttpServletRequest): R&lt;/p&gt;" style="verticalAlign=top;align=left;overflow=fill;fontSize=14;fontFamily=Helvetica;html=1;rounded=0;shadow=0;comic=0;labelBackgroundColor=none;strokeWidth=1;" vertex="1" parent="1">
          <mxGeometry x="-1078" y="542" width="445" height="328" as="geometry" />
        </mxCell>
        <mxCell id="ZGr0lM3EEifFJW2oDLYv-6" value="" style="html=1;rounded=1;edgeStyle=orthogonalEdgeStyle;dashed=1;dashPattern=1 1;startArrow=none;endArrow=none;strokeColor=#999900;exitX=0.798;exitY=0.000;exitDx=0;exitDy=0;entryX=0.500;entryY=1.000;entryDx=0;entryDy=0;" edge="1" parent="1" source="ZGr0lM3EEifFJW2oDLYv-5">
          <mxGeometry width="50" height="50" relative="1" as="geometry">
            <Array as="points" />
            <mxPoint x="827" y="1112" as="targetPoint" />
          </mxGeometry>
        </mxCell>
        <mxCell id="ZGr0lM3EEifFJW2oDLYv-7" value="" style="html=1;rounded=1;edgeStyle=orthogonalEdgeStyle;dashed=1;dashPattern=1 1;startArrow=none;endArrow=none;strokeColor=#999900;exitX=0.231;exitY=0.000;exitDx=0;exitDy=0;entryX=0.500;entryY=1.001;entryDx=0;entryDy=0;" edge="1" parent="1" source="ZGr0lM3EEifFJW2oDLYv-5">
          <mxGeometry width="50" height="50" relative="1" as="geometry">
            <Array as="points" />
            <mxPoint x="575" y="1116" as="targetPoint" />
          </mxGeometry>
        </mxCell>
        <mxCell id="ZGr0lM3EEifFJW2oDLYv-8" value="&lt;p style=&quot;margin:0px;margin-top:4px;text-align:center;&quot;&gt;&lt;b&gt;UserController&lt;/b&gt;&lt;/p&gt;&lt;hr size=&quot;1&quot;/&gt;&lt;p style=&quot;margin:0 0 0 4px;line-height:1.6;&quot;&gt;- tokenService: TokenService&lt;br/&gt;- userService: UserService&lt;/p&gt;&lt;hr size=&quot;1&quot;/&gt;&lt;p style=&quot;margin:0 0 0 4px;line-height:1.6;&quot;&gt;+ save(UserEntity): R&lt;br/&gt;+ logout(HttpServletRequest): R&lt;br/&gt;+ update(UserEntity): R&lt;br/&gt;+ login(String, String, String, HttpServletRequest): R&lt;br/&gt;+ resetPass(String, HttpServletRequest): R&lt;br/&gt;+ list(UserEntity): R&lt;br/&gt;+ page(Map&amp;lt;String, Object&amp;gt;, UserEntity): R&lt;br/&gt;+ getCurrUser(HttpServletRequest): R&lt;br/&gt;+ info(String): R&lt;br/&gt;+ delete(Long[]): R&lt;br/&gt;+ register(UserEntity): R&lt;/p&gt;" style="verticalAlign=top;align=left;overflow=fill;fontSize=14;fontFamily=Helvetica;html=1;rounded=0;shadow=0;comic=0;labelBackgroundColor=none;strokeWidth=1;" vertex="1" parent="1">
          <mxGeometry x="-511" y="558" width="350" height="352" as="geometry" />
        </mxCell>
        <mxCell id="ZGr0lM3EEifFJW2oDLYv-9" value="&lt;p style=&quot;margin:0px;margin-top:4px;text-align:center;&quot;&gt;&lt;b&gt;StoreupController&lt;/b&gt;&lt;/p&gt;&lt;hr size=&quot;1&quot;/&gt;&lt;p style=&quot;margin:0 0 0 4px;line-height:1.6;&quot;&gt;- storeupService: StoreupService&lt;/p&gt;&lt;hr size=&quot;1&quot;/&gt;&lt;p style=&quot;margin:0 0 0 4px;line-height:1.6;&quot;&gt;+ query(StoreupEntity): R&lt;br/&gt;+ list(Map&amp;lt;String, Object&amp;gt;, StoreupEntity, HttpServletRequest): R&lt;br/&gt;+ save(StoreupEntity, HttpServletRequest): R&lt;br/&gt;+ add(StoreupEntity, HttpServletRequest): R&lt;br/&gt;+ page(Map&amp;lt;String, Object&amp;gt;, StoreupEntity, HttpServletRequest): R&lt;br/&gt;+ detail(Long): R&lt;br/&gt;+ list(StoreupEntity): R&lt;br/&gt;+ remindCount(String, HttpServletRequest, String, Map&amp;lt;String, Object&amp;gt;): R&lt;br/&gt;+ info(Long): R&lt;br/&gt;+ update(StoreupEntity, HttpServletRequest): R&lt;br/&gt;+ delete(Long[]): R&lt;/p&gt;" style="verticalAlign=top;align=left;overflow=fill;fontSize=14;fontFamily=Helvetica;html=1;rounded=0;shadow=0;comic=0;labelBackgroundColor=none;strokeWidth=1;" vertex="1" parent="1">
          <mxGeometry x="-79" y="685" width="448" height="328" as="geometry" />
        </mxCell>
        <mxCell id="ZGr0lM3EEifFJW2oDLYv-10" value="&lt;p style=&quot;margin:0px;margin-top:4px;text-align:center;&quot;&gt;&lt;b&gt;NewsController&lt;/b&gt;&lt;/p&gt;&lt;hr size=&quot;1&quot;/&gt;&lt;p style=&quot;margin:0 0 0 4px;line-height:1.6;&quot;&gt;- newsService: NewsService&lt;/p&gt;&lt;hr size=&quot;1&quot;/&gt;&lt;p style=&quot;margin:0 0 0 4px;line-height:1.6;&quot;&gt;+ page(Map&amp;lt;String, Object&amp;gt;, NewsEntity, HttpServletRequest): R&lt;br/&gt;+ info(Long): R&lt;br/&gt;+ save(NewsEntity, HttpServletRequest): R&lt;br/&gt;+ update(NewsEntity, HttpServletRequest): R&lt;br/&gt;+ detail(Long): R&lt;br/&gt;+ list(Map&amp;lt;String, Object&amp;gt;, NewsEntity, HttpServletRequest): R&lt;br/&gt;+ list(NewsEntity): R&lt;br/&gt;+ remindCount(String, HttpServletRequest, String, Map&amp;lt;String, Object&amp;gt;): R&lt;br/&gt;+ query(NewsEntity): R&lt;br/&gt;+ delete(Long[]): R&lt;br/&gt;+ add(NewsEntity, HttpServletRequest): R&lt;/p&gt;" style="verticalAlign=top;align=left;overflow=fill;fontSize=14;fontFamily=Helvetica;html=1;rounded=0;shadow=0;comic=0;labelBackgroundColor=none;strokeWidth=1;" vertex="1" parent="1">
          <mxGeometry x="-101" y="1070" width="434" height="328" as="geometry" />
        </mxCell>
        <mxCell id="ZGr0lM3EEifFJW2oDLYv-11" value="&lt;p style=&quot;margin:0px;margin-top:4px;text-align:center;&quot;&gt;&lt;b&gt;Course typeController&lt;/b&gt;&lt;/p&gt;&lt;hr size=&quot;1&quot;/&gt;&lt;p style=&quot;margin:0 0 0 4px;line-height:1.6;&quot;&gt;- Course typeService: Course typeService&lt;/p&gt;&lt;hr size=&quot;1&quot;/&gt;&lt;p style=&quot;margin:0 0 0 4px;line-height:1.6;&quot;&gt;+ add(Course typeEntity, HttpServletRequest): R&lt;br/&gt;+ page(Map&amp;lt;String, Object&amp;gt;, Course typeEntity, HttpServletRequest): R&lt;br/&gt;+ list(Course typeEntity): R&lt;br/&gt;+ detail(Long): R&lt;br/&gt;+ info(Long): R&lt;br/&gt;+ query(Course typeEntity): R&lt;br/&gt;+ update(Course typeEntity, HttpServletRequest): R&lt;br/&gt;+ delete(Long[]): R&lt;br/&gt;+ list(Map&amp;lt;String, Object&amp;gt;, Course typeEntity, HttpServletRequest): R&lt;br/&gt;+ remindCount(String, HttpServletRequest, String, Map&amp;lt;String, Object&amp;gt;): R&lt;br/&gt;+ save(Course typeEntity, HttpServletRequest): R&lt;/p&gt;" style="verticalAlign=top;align=left;overflow=fill;fontSize=14;fontFamily=Helvetica;html=1;rounded=0;shadow=0;comic=0;labelBackgroundColor=none;strokeWidth=1;" vertex="1" parent="1">
          <mxGeometry x="-1160" y="1044" width="443" height="328" as="geometry" />
        </mxCell>
        <mxCell id="ZGr0lM3EEifFJW2oDLYv-12" value="&lt;p style=&quot;margin:0px;margin-top:4px;text-align:center;&quot;&gt;&lt;b&gt;TeacherController&lt;/b&gt;&lt;/p&gt;&lt;hr size=&quot;1&quot;&gt;&lt;p style=&quot;margin:0 0 0 4px;line-height:1.6;&quot;&gt;- tokenService: TokenService&lt;br&gt;- teacherService: teacherService&lt;/p&gt;&lt;hr size=&quot;1&quot;&gt;&lt;p style=&quot;margin:0 0 0 4px;line-height:1.6;&quot;&gt;+ update(teacherEntity, HttpServletRequest): R&lt;br&gt;+ list(Map&amp;lt;String, Object&amp;gt;, teacherEntity, HttpServletRequest): R&lt;br&gt;+ detail(Long): R&lt;br&gt;+ remindCount(String, HttpServletRequest, String, Map&amp;lt;String, Object&amp;gt;): R&lt;br&gt;+ register(teacherEntity): R&lt;br&gt;+ save(teacherEntity, HttpServletRequest): R&lt;br&gt;+ query(teacherEntity): R&lt;br&gt;+ add(teacherEntity, HttpServletRequest): R&lt;br&gt;+ login(String, String, String, HttpServletRequest): R&lt;br&gt;+ info(Long): R&lt;br&gt;+ list(teacherEntity): R&lt;br&gt;+ getCurrUser(HttpServletRequest): R&lt;br&gt;+ resetPass(String, HttpServletRequest): R&lt;br&gt;+ logout(HttpServletRequest): R&lt;br&gt;+ delete(Long[]): R&lt;br&gt;+ page(Map&amp;lt;String, Object&amp;gt;, teacherEntity, HttpServletRequest): R&lt;/p&gt;" style="verticalAlign=top;align=left;overflow=fill;fontSize=14;fontFamily=Helvetica;html=1;rounded=0;shadow=0;comic=0;labelBackgroundColor=none;strokeWidth=1;" vertex="1" parent="1">
          <mxGeometry x="-577" y="954" width="444" height="472" as="geometry" />
        </mxCell>
      </root>
    </mxGraphModel>
  </diagram>
</mxfile>
